<svg xmlns="http://www.w3.org/2000/svg" width="1280" height="720" viewBox="0 0 1280 720" role="img" aria-labelledby="title desc">
<title id="title">知识图谱页面预览占位图</title>
<desc id="desc">用于 README 的知识图谱页面截图占位图，可替换为真实截图。</desc>
<defs>
  <linearGradient id="bg" x1="0" y1="0" x2="1" y2="1">
    <stop offset="0%" stop-color="#06101d"/>
    <stop offset="100%" stop-color="#0a1f34"/>
  </linearGradient>
</defs>
<rect width="1280" height="720" fill="url(#bg)"/>
<rect x="40" y="40" width="1200" height="640" rx="24" fill="#081529" stroke="#3178c6" stroke-opacity="0.5"/>
<rect x="70" y="70" width="1140" height="90" rx="18" fill="#0d223f"/>
<rect x="70" y="190" width="800" height="460" rx="18" fill="#09192f" stroke="#29588f" stroke-opacity="0.5"/>
<rect x="900" y="190" width="280" height="220" rx="18" fill="#0d223f"/>
<rect x="900" y="430" width="280" height="220" rx="18" fill="#0d223f"/>
<line x1="250" y1="430" x2="430" y2="320" stroke="#4ea1ff" stroke-width="3" stroke-opacity="0.7"/>
<line x1="430" y1="320" x2="610" y2="430" stroke="#4ea1ff" stroke-width="3" stroke-opacity="0.7"/>
<line x1="610" y1="430" x2="360" y2="520" stroke="#4ea1ff" stroke-width="3" stroke-opacity="0.7"/>
<line x1="360" y1="520" x2="250" y2="430" stroke="#4ea1ff" stroke-width="3" stroke-opacity="0.7"/>
<line x1="610" y1="430" x2="720" y2="300" stroke="#6df7c1" stroke-width="3" stroke-opacity="0.7"/>
<line x1="430" y1="320" x2="720" y2="300" stroke="#ffb860" stroke-width="3" stroke-opacity="0.7"/>
<circle cx="250" cy="430" r="54" fill="#56b8ff"/>
<circle cx="430" cy="320" r="48" fill="#5ff0c2"/>
<circle cx="610" cy="430" r="52" fill="#ffb860"/>
<circle cx="360" cy="520" r="46" fill="#ff7db8"/>
<circle cx="720" cy="300" r="42" fill="#9a7cff"/>
<text x="100" y="124" fill="#eef6ff" font-size="30" font-family="Segoe UI, Arial, sans-serif" font-weight="700">知识图谱可视化</text>
<text x="100" y="152" fill="#91a9c8" font-size="16" font-family="Segoe UI, Arial, sans-serif">README 展示占位图 - D3.js 图谱页面</text>
<text x="210" y="436" fill="#081529" font-size="18" font-family="Segoe UI, Arial, sans-serif" font-weight="700">文档</text>
<text x="394" y="326" fill="#081529" font-size="18" font-family="Segoe UI, Arial, sans-serif" font-weight="700">章节</text>
<text x="564" y="436" fill="#081529" font-size="16" font-family="Segoe UI, Arial, sans-serif" font-weight="700">代码实体</text>
<text x="332" y="526" fill="#081529" font-size="18" font-family="Segoe UI, Arial, sans-serif" font-weight="700">术语</text>
<text x="694" y="306" fill="#081529" font-size="16" font-family="Segoe UI, Arial, sans-serif" font-weight="700">要素</text>
<text x="930" y="240" fill="#eef6ff" font-size="24" font-family="Segoe UI, Arial, sans-serif" font-weight="700">图谱概览</text>
<text x="930" y="286" fill="#95a7c5" font-size="16" font-family="Segoe UI, Arial, sans-serif">实体数量 / 关系数量 / 分类统计</text>
<text x="930" y="470" fill="#eef6ff" font-size="24" font-family="Segoe UI, Arial, sans-serif" font-weight="700">操作说明</text>
<text x="930" y="516" fill="#95a7c5" font-size="16" font-family="Segoe UI, Arial, sans-serif">支持拖拽、缩放、实体过滤与子图查看</text>
</svg>
